<?xml version="1.0"?>
<svg height="60px" version="1.1" viewBox="0 0 45 60" width="45px" xmlns="http://www.w3.org/2000/svg"
    xmlns:xlink="http://www.w3.org/1999/xlink">
    <title />
    <desc />
    <g fill="none" fill-rule="evenodd" id="Page-1" stroke="none" stroke-width="1">
        <g id="007---Coffee-Cup" transform="translate(0.000000, -1.000000)">
            <path
                d="M37.0000079,9 L6.99999215,9 L7,3.085 C6.998909,2.81071987 7.11154259,2.54825403 7.31109127,2.36007564 C7.51063995,2.17189725 7.77925515,2.07483789 8.053,2.092 C17.3425681,2.65200003 26.6574319,2.65200003 35.947,2.092 C36.2207449,2.07483789 36.48936,2.17189725 36.6889087,2.36007564 C36.8884574,2.54825403 37.001091,2.81071987 37,3.085 L37.0000079,9 Z"
                fill="#1f3933" id="Path" />
            <path
                d="M36.2,48 L35.18,58.2 C35.0772869,59.2219821 34.2171307,60.0000129 33.19,60 L10.81,60 C9.78286935,60.0000129 8.92271307,59.2219821 8.82,58.2 L7.8,48 L5.3,23 L4.1,11 L4,8 L40,8.222 L39.9,11 L38.7,23 L36.2,48 Z"
                fill="#e3cfac" id="Path" />
            <path
                d="M36.113,48 L7.887,48 C7.3807028,48.0000535 6.95424936,47.6216996 6.894,47.119 L4.134,24.119 C4.09997017,23.835067 4.18912525,23.5501497 4.37893202,23.3362587 C4.56873878,23.1223677 4.84103502,22.9999698 5.127,23 L38.873,23 C39.158965,22.9999698 39.4312612,23.1223677 39.621068,23.3362587 C39.8108747,23.5501497 39.9000298,23.835067 39.866,24.119 L37.106,47.119 C37.0457506,47.6216996 36.6192972,48.0000535 36.113,48 Z"
                fill="#1f3933" id="Path" />
            <rect fill="#1f3933" height="4" id="Rectangle" rx="1" width="43" x="1" y="7" />
            <path
                d="M8.919,20 C8.4058175,19.9994932 7.97631802,19.6106104 7.925,19.1 L7.525,15.1 C7.46977153,14.5502005 7.87070053,14.0597285 8.4205,14.0045 C8.97029947,13.9492715 9.46077153,14.3502005 9.516,14.9 L9.916,18.9 C9.94392748,19.1648586 9.86504851,19.4299159 9.69685043,19.6364091 C9.52865234,19.8429023 9.28503214,19.9737703 9.02,20 C8.98636142,20.0019447 8.95263858,20.0019447 8.919,20 Z"
                fill="#FFFFFF" id="Path" />
            <path
                d="M12.619,57 C12.1058175,56.9994932 11.676318,56.6106104 11.625,56.1 L11.225,52.1 C11.1697715,51.5504767 11.5704767,51.0602285 12.12,51.005 C12.6695233,50.9497715 13.1597715,51.3504767 13.215,51.9 L13.615,55.9 C13.6429374,56.1647015 13.5641932,56.4296188 13.396206,56.6360835 C13.2282188,56.8425482 12.9848515,56.9735222 12.72,57 C12.686,57 12.652,57 12.619,57 Z"
                fill="#FFFFFF" id="Path" />
            <path
                d="M8.748,30 C8.24208423,29.9995476 7.8162038,29.6213211 7.756,29.119 L7.516,27.119 C7.45027811,26.5705812 7.84158124,26.0727219 8.39,26.007 C8.93841876,25.9412781 9.43627811,26.3325812 9.502,26.881 L9.742,28.881 C9.77358943,29.1443651 9.69924901,29.409491 9.53533694,29.6180382 C9.37142487,29.8265854 9.13137177,29.9614659 8.868,29.993 C8.82818159,29.9977941 8.78810576,30.0001319 8.748,30 Z"
                fill="#FFFFFF" id="Path" />
            <path
                d="M10.428,44 C9.92208423,43.9995476 9.4962038,43.6213211 9.436,43.119 L8.236,33.119 C8.17027811,32.5703051 8.5618051,32.0722219 9.1105,32.0065 C9.6591949,31.9407781 10.1572781,32.3323051 10.223,32.881 L11.423,42.881 C11.4545894,43.1443651 11.380249,43.409491 11.2163369,43.6180382 C11.0524249,43.8265854 10.8123718,43.9614659 10.549,43.993 C10.5088504,43.9978353 10.4684393,44.0001731 10.428,44 Z"
                fill="#FFFFFF" id="Path" />
            <path
                d="M43,6 L38,6 L38,2 C38.0001432,1.72343905 37.8857463,1.45916768 37.684,1.27 C37.4834127,1.078018 37.2109283,0.979923624 36.934,1 L36.567,1.025 C26.8663432,1.66899894 17.1336568,1.66899894 7.433,1.025 L7.066,1 C6.78936871,0.979392639 6.51692599,1.07674551 6.316,1.268 C6.11374528,1.45764282 5.99930269,1.72274401 6,2 L6,6 L2,6 C0.8954305,6 0,6.8954305 0,8 L0,10 C0,11.1045695 0.8954305,12 2,12 L3.2,12 L4.223,22.228 C3.47213828,22.5997189 3.03996602,23.4070295 3.147,24.238 L5.906,47.238 C5.98080632,47.8540081 6.33730906,48.4003994 6.871,48.717 L8.005,60.1 C8.05654198,60.6129013 8.48952193,61.0025832 9.005,61 L35,61 C35.5154781,61.0025832 35.948458,60.6129013 36,60.1 L37.139,48.717 C37.6726909,48.4003994 38.0291937,47.8540081 38.104,47.238 L40.863,24.238 C40.9706238,23.4064013 40.5384039,22.5981982 39.787,22.226 L40.805,12 L43,12 C44.1045695,12 45,11.1045695 45,10 L45,8 C45,6.8954305 44.1045695,6 43,6 Z M8,3.068 C17.3240092,3.65800047 26.6759908,3.65800047 36,3.068 L36,6 L8,6 L8,3.068 Z M34.1,59 L9.905,59 L8.905,49 L35.1,49 L34.1,59 Z M36.119,47 L7.888,47 L5.127,24 L38.872,24 L36.119,47 Z M37.8,22 L6.205,22 L5.205,12 L38.8,12 L37.8,22 Z M39.9,10 L2,10 L2,8 L43,8 L43,10 L39.9,10 Z"
                fill="#000000" fill-rule="nonzero" id="Shape" />
        </g>
    </g>
</svg>